<svg xmlns="http://www.w3.org/2000/svg" width="500" height="500" viewBox="0 0 500 500"><rect x="0" y="0" width="500" height="500" fill="#000000"/><g transform="translate(171.10242940885067,237.08702339805706)translate(117.8671875,33.99999999999999)rotate(0)translate(-117.8671875,-33.99999999999999)" opacity="1"><path transform="translate(6,37.5078125)rotate(0)" d="M24.82 0L36.47-33.02L25.64-33.02L18.96-10.95L18.77-10.95L12.14-33.02L0.82-33.02L12.54 0L24.82 0ZM57.30-33.61L57.30-33.61L57.30-33.61Q53.09-33.61 49.77-32.52L49.77-32.52L49.77-32.52Q46.45-31.43 44.17-29.29L44.17-29.29L44.17-29.29Q41.88-27.14 40.69-23.94L40.69-23.94L40.69-23.94Q39.49-20.74 39.49-16.52L39.49-16.52L39.49-16.52Q39.49-12.28 40.69-9.08L40.69-9.08L40.69-9.08Q41.88-5.88 44.17-3.74L44.17-3.74L44.17-3.74Q46.45-1.59 49.77-0.50L49.77-0.50L49.77-0.50Q53.09 0.59 57.30 0.59L57.30 0.59L57.30 0.59Q61.52 0.59 64.85-0.50L64.85-0.50L64.85-0.50Q68.18-1.59 70.46-3.74L70.46-3.74L70.46-3.74Q72.75-5.88 73.96-9.08L73.96-9.08L73.96-9.08Q75.16-12.28 75.16-16.52L75.16-16.52L75.16-16.52Q75.16-20.74 73.96-23.94L73.96-23.94L73.96-23.94Q72.75-27.14 70.46-29.29L70.46-29.29L70.46-29.29Q68.18-31.43 64.85-32.52L64.85-32.52L64.85-32.52Q61.52-33.61 57.30-33.61ZM57.30-25.69L57.30-25.69L57.30-25.69Q59.06-25.69 60.38-25.13L60.38-25.13L60.38-25.13Q61.69-24.56 62.57-23.55L62.57-23.55L62.57-23.55Q63.45-22.55 63.88-21.14L63.88-21.14L63.88-21.14Q64.31-19.73 64.31-18.05L64.31-18.05L64.31-14.98L64.31-14.98Q64.31-13.29 63.88-11.88L63.88-11.88L63.88-11.88Q63.45-10.48 62.57-9.47L62.57-9.47L62.57-9.47Q61.69-8.46 60.38-7.90L60.38-7.90L60.38-7.90Q59.06-7.34 57.30-7.34L57.30-7.34L57.30-7.34Q55.55-7.34 54.25-7.90L54.25-7.90L54.25-7.90Q52.95-8.46 52.08-9.47L52.08-9.47L52.08-9.47Q51.21-10.48 50.78-11.88L50.78-11.88L50.78-11.88Q50.34-13.29 50.34-14.98L50.34-14.98L50.34-18.05L50.34-18.05Q50.34-19.73 50.78-21.14L50.78-21.14L50.78-21.14Q51.21-22.55 52.08-23.55L52.08-23.55L52.08-23.55Q52.95-24.56 54.25-25.13L54.25-25.13L54.25-25.13Q55.55-25.69 57.30-25.69ZM110.67-24.59L110.67-33.02L78.42-33.02L78.42-24.59L89.27-24.59L89.27 0L99.89 0L99.89-24.59L110.67-24.59ZM115.55 0L144.42 0L144.42-7.92L126.14-7.92L126.14-12.96L141.52-12.96L141.52-20.55L126.14-20.55L126.14-25.10L144.09-25.10L144.09-33.02L115.55-33.02L115.55 0ZM150.21 0L179.09 0L179.09-7.92L160.80-7.92L160.80-12.96L176.18-12.96L176.18-20.55L160.80-20.55L160.80-25.10L178.76-25.10L178.76-33.02L150.21-33.02L150.21 0ZM223.73 0L223.73-33.02L209.30-33.02L204.35-13.97L204.16-13.97L199.17-33.02L184.20-33.02L184.20 0L193.95 0L193.95-11.91L193.95-11.91Q193.95-13.78 193.80-15.64L193.80-15.64L193.80-15.64Q193.66-17.51 193.50-18.98L193.50-18.98L193.50-18.98Q193.31-20.72 193.08-22.31L193.08-22.31L193.27-22.31L199.41 0L207.70 0L213.80-22.36L214.01-22.36L214.01-22.36Q213.77-20.77 213.61-19.01L213.61-19.01L213.61-19.01Q213.47-17.51 213.35-15.64L213.35-15.64L213.35-15.64Q213.23-13.78 213.23-11.91L213.23-11.91L213.23 0L223.73 0Z" fill="#C7C7C7"/></g><g transform="translate(92.79523533776046,213.4146574512342)translate(40.095289757581156,40.09528975758122)rotate(0)translate(-40.095289757581156,-40.09528975758122) scale(1,1)" opacity="1"><linearGradient class="linearGradient" x1="0%" y1="0%" x2="0%" y2="100%" gradientTransform="translate(0.5,0.5) rotate(0) translate(-0.5,-0.5)">
		<stop id="stop1" offset="0%" class="linearGradientColor1" stop-color="#05a" data-darkreader-inline-stopcolor="" style="--darkreader-inline-stopcolor:#004488;"/>
		<stop id="stop2" offset="100%" class="linearGradientColor2" stop-color="#0a5" data-darkreader-inline-stopcolor="" style="--darkreader-inline-stopcolor:#008844;"/>
	</linearGradient><radialGradient class="radialGradient" cx="50%" cy="50%" r="50%" fx="50%" fy="50%">
		<stop offset="0%" class="radialGradientColor1" stop-color="#05a" data-darkreader-inline-stopcolor="" style="--darkreader-inline-stopcolor:#004488;"/>
		<stop offset="100%" class="radialGradientColor2" stop-color="#0a5" data-darkreader-inline-stopcolor="" style="--darkreader-inline-stopcolor:#008844;"/>
	</radialGradient><clipPath id="clipce4d50e2c9720a50f2d66950f59e9bce" class="clipPath">
		<rect fill="none" class="element" stroke="#dddddd" stroke-width="1" stroke-miterlimit="10" x="0" y="0" width="80.19057951516231" height="80.19057951516244" data-darkreader-inline-stroke="" style="--darkreader-inline-stroke:#d3cfc9;"/>
	</clipPath><rect class="fill-color element" fill="#000000" opacity="1" x="0" y="0" width="80.19057951516231" height="80.19057951516244" clip-path="url(#clipce4d50e2c9720a50f2d66950f59e9bce)" data-darkreader-inline-fill="" style="--darkreader-inline-fill:#000000;"/><rect class="stroke-color element" fill="none" stroke="#dddddd" stroke-width="0" stroke-miterlimit="10" x="0" y="0" width="80.19057951516231" height="80.19057951516244" clip-path="url(#clipce4d50e2c9720a50f2d66950f59e9bce)" data-darkreader-inline-stroke="" style="--darkreader-inline-stroke:#d3cfc9;"/></g><g transform="translate(92.79523533776046,213.34214002641963)translate(40.095289757581156,28.981921400860298)rotate(0)translate(-40.095289757581156,-28.981921400860298) scale(0.4354326304152425,0.4354326304152425)" opacity="1"><defs class="defs"/><path fill="#000000" d="M0,0.347c42.402,68.702,101.165,116.934,184.163,132.45V0H0V0.347z" class="color c1" data-darkreader-inline-fill="" style="--darkreader-inline-fill:#000000;"/></g><g transform="translate(101.49332681529754,221.6235650475207)translate(31.378922418976593,32.03264996937195)rotate(0)translate(-31.378922418976593,-32.03264996937195) scale(0.43731556535885485,0.43731556535885485)" opacity="1"><defs class="defs"><linearGradient id="linearGradient056c212ae0c17e2803dc4339a5e92a53" class="linearGradient1" gradientTransform="translate(0.5,0.5) rotate(270) translate(-0.5,-0.5)" x1="50%" y1="0%" x2="50%" y2="100%"><stop id="stop1" offset="0%" class="linearGradientColor1" stop-color="#59D559" data-darkreader-inline-stopcolor="" style="--darkreader-inline-stopcolor:#3e8c23;"/><stop id="stop2" offset="100%" class="linearGradientColor2" stop-color="#00924C" data-darkreader-inline-stopcolor="" style="--darkreader-inline-stopcolor:#00753d;"/></linearGradient></defs><path fill="#C7C7C7" d="M0,43.23L90.472,0l53.035,13.37l-9.359,94.037h-26.741l-4.902-69.08l-3.12,1.337l-4.457,67.743H74.428&#10;&#9;l-9.805-57.492l-2.674,0.891l0.446,56.601H43.23L32.089,59.721l-3.12,1.337l3.12,46.35H13.816L0,43.23z M68.188,116.321&#10;&#9;l6.685,16.936l55.709,13.816l2.228-27.632L68.188,116.321z" class="color c1" style="--darkreader-inline-fill:#383c3f;" data-darkreader-inline-fill=""/></g></svg>